<svg xmlns="http://www.w3.org/2000/svg" xmlns:xlink="http://www.w3.org/1999/xlink" version="1.1" x="0px" y="0px" viewBox="0 0 100 125" style="enable-background:new 0 0 100 100;" xml:space="preserve"><g><g><path d="M49.984375,47.4975586c-1.6484375,0-2.9897461,1.3408203-2.9897461,2.9892578s1.3413086,2.9897461,2.9897461,2.9897461    s2.9897461-1.3413086,2.9897461-2.9897461S51.6328125,47.4975586,49.984375,47.4975586z"/><path d="M19.2299805,34.4521484l1.684082,1.8095703c0.1611328,0.1733398,0.3891602,0.2729492,0.6259766,0.2729492    c0.0004883,0,0.0014648,0,0.0024414,0c0.2368164-0.0009766,0.4648438-0.1010742,0.6254883-0.2758789l1.6650391-1.8066406    c0.15625-0.1694336,0.2495117-0.3891602,0.2617188-0.6191406l0.1352539-2.4804688    c0.0253906-0.4716797-0.1391602-0.9204102-0.4638672-1.2636719c-0.324707-0.3427734-0.7636719-0.5317383-1.2358398-0.5317383    h-1.9980469c-0.472168,0-0.9111328,0.1889648-1.2358398,0.5317383c-0.324707,0.3432617-0.4892578,0.7919922-0.4638672,1.2636719    l0.1347656,2.4716797C18.9804688,34.0566406,19.0732422,34.2792969,19.2299805,34.4521484z"/><path d="M27.6210938,34.7641602l-2.4716797,0.1347656c-0.2324219,0.0131836-0.4550781,0.1054688-0.628418,0.2626953    l-1.8095703,1.6845703c-0.1738281,0.1616211-0.2734375,0.390625-0.2724609,0.6279297    c0.0004883,0.2373047,0.1010742,0.465332,0.2758789,0.6259766l1.8066406,1.6645508    c0.1694336,0.15625,0.3891602,0.2495117,0.6186523,0.2617188l2.480957,0.1357422    c0.0317383,0.0014648,0.0634766,0.0024414,0.0952148,0.0024414c0.4365234,0,0.8481445-0.1640625,1.1679688-0.4667969    c0.3427734-0.324707,0.5317383-0.7636719,0.5317383-1.2358398v-1.9980469c0-0.472168-0.1889648-0.9111328-0.5317383-1.2358398    C28.5415039,34.902832,28.097168,34.7421875,27.6210938,34.7641602z"/><path d="M20.5664063,37.4526367c-0.0004883-0.2373047-0.1010742-0.4658203-0.2753906-0.6264648l-1.8071289-1.6650391    c-0.1694336-0.15625-0.3896484-0.2495117-0.6191406-0.2617188l-2.4804688-0.1352539    c-0.4760742-0.0205078-0.9204102,0.1396484-1.2636719,0.4638672c-0.3427734,0.324707-0.5317383,0.7636719-0.5317383,1.2358398    v1.9980469c0,0.472168,0.1889648,0.9106445,0.5317383,1.2353516c0.3198242,0.3032227,0.7314453,0.4672852,1.168457,0.4672852    c0.0317383,0,0.0634766-0.0009766,0.0952148-0.0024414l2.4711914-0.1352539    c0.2319336-0.012207,0.4550781-0.1049805,0.6289063-0.2626953l1.8095703-1.684082    C20.4677734,37.918457,20.5668945,37.6899414,20.5664063,37.4526367z"/><path d="M23.7856445,40.4887695l-1.684082-1.8100586c-0.1611328-0.1728516-0.3891602-0.2719727-0.6254883-0.2719727    c-0.0009766,0-0.0019531,0-0.0029297,0c-0.2373047,0.0009766-0.465332,0.1010742-0.6254883,0.2758789l-1.6650391,1.8066406    c-0.15625,0.1694336-0.2495117,0.3896484-0.2617188,0.6191406l-0.1352539,2.4804688    c-0.0253906,0.4716797,0.1391602,0.9204102,0.4638672,1.2636719c0.324707,0.3427734,0.7636719,0.5317383,1.2358398,0.5317383    h1.9980469c0.472168,0,0.9111328-0.1889648,1.2358398-0.5317383c0.324707-0.3432617,0.4892578-0.7919922,0.4638672-1.2636719    l-0.1347656-2.4716797C24.0351563,40.8847656,23.9428711,40.6621094,23.7856445,40.4887695z"/><path d="M31.3071289,25.7265625c-1.0336914,0-1.875,0.8413086-1.875,1.875v1.875c0,1.0336914,0.8413086,1.875,1.875,1.875    s1.875-0.8413086,1.875-1.875v-1.875C33.1821289,26.5678711,32.3408203,25.7265625,31.3071289,25.7265625z M32.6821289,29.4765625    c0,0.7583008-0.6166992,1.375-1.375,1.375s-1.375-0.6166992-1.375-1.375v-1.875c0-0.7583008,0.6166992-1.375,1.375-1.375    s1.375,0.6166992,1.375,1.375V29.4765625z"/><circle cx="35.2446289" cy="49.8515625" r="6.25"/><path d="M91.5107422,42.1450195c-1.0893555-5.3208008-1.7744141-8.1254883-2.9555664-10.6796875    c-1.1538086-2.4941406-4.7182617-7.3530273-4.8691406-7.5585938l-0.0517578-0.0698242l-0.0834961-0.0234375    c-0.0186157-0.005127-0.1015015-0.0274658-0.2283936-0.0601807c-0.3265991-0.3971558-2.0803223-2.2611084-6.2442627-2.2611084    c-2.4599609,0-5.0380859,1.1132813-5.28125,1.550293c-0.1245117,0.2242432-0.1951904,0.552124-0.229248,0.7456665    c-1.4232178,0.7315063-2.6538696,1.2112427-6.1970215,1.2183228l-0.8417969-0.5611572H35.4711914l-0.8417358,0.5611572    c-3.4963379-0.006958-4.7422485-0.4755859-6.1954956-1.2103271c-0.0335083-0.1924438-0.1047974-0.5266724-0.230835-0.7536621    c-0.2431641-0.4370117-2.8212891-1.550293-5.28125-1.550293c-4.1639404,0-5.9176636,1.8639526-6.2442627,2.2611084    c-0.1268921,0.0327148-0.2097778,0.0550537-0.2283936,0.0601807l-0.0834961,0.0234375l-0.0517578,0.0698242    c-0.1508789,0.2055664-3.715332,5.0644531-4.8691406,7.5585938c-1.1811523,2.5541992-1.8662109,5.3588867-2.9555664,10.6796875    c-1.0761719,5.2592773-2.0932617,10.2270508-2.7539063,17.559082c-0.6479492,7.1904297,0.065918,12.6992188,1.9584961,15.1142578    c1.8105469,2.3100586,4.5361328,3.6894531,7.2905273,3.6894531c2.7363281,0,6.253418-1.1777344,7.6796875-3.4287109    c1.5239258-2.4042969,2.7744141-5.4238281,3.9355469-9.5029297c0.1669922-0.5864258,0.3193359-1.1391602,0.4624023-1.6591797    c0.8823853-3.2098389,1.4157104-5.1472778,2.9758301-5.9609375c1.4781494,1.0516357,3.2797241,1.6767578,5.2277832,1.6767578    c1.8829346,0,3.6325073-0.5795898,5.0822144-1.5678711h19.3043213c1.449707,0.9882813,3.1992798,1.5678711,5.0822144,1.5678711    c1.9480591,0,3.7496338-0.6251221,5.2277832-1.6767578c1.5601196,0.8136597,2.0934448,2.7510986,2.9758301,5.9609375    c0.1430664,0.5200195,0.2954102,1.0727539,0.4624023,1.6591797c1.1611328,4.0791016,2.4116211,7.0986328,3.9355469,9.5029297    c1.4262695,2.2509766,4.9433594,3.4287109,7.6796875,3.4287109c2.7543945,0,5.4799805-1.3793945,7.2905273-3.6894531    c1.8925781-2.4150391,2.6064453-7.9238281,1.9584961-15.1142578    C93.6040039,52.3720703,92.5869141,47.4042969,91.5107422,42.1450195z M35.265625,57.8515625    c-4.4282227,0-8.03125-3.6030273-8.03125-8.03125c0-4.4262695,3.5991211-8.027832,8.0249023-8.03125    c0.0039063,0,0.0087891,0,0.0126953,0c4.4257813,0.003418,8.0249023,3.6049805,8.0249023,8.03125    C43.296875,54.2485352,39.6938477,57.8515625,35.265625,57.8515625z M64.734375,57.8515625    c-4.4282227,0-8.03125-3.6030273-8.03125-8.03125c0-4.4262695,3.5991211-8.027832,8.0249023-8.03125    c0.0039063,0,0.0087891,0,0.0126953,0c4.4257813,0.003418,8.0249023,3.6049805,8.0249023,8.03125    C72.765625,54.2485352,69.1625977,57.8515625,64.734375,57.8515625z M91.9125977,74.5097656    c-1.7167969,2.1904297-4.2949219,3.4980469-6.8969727,3.4980469c-2.5996094,0-5.9277344-1.0981445-7.2578125-3.1962891    c-1.4970703-2.3623047-2.7290039-5.3408203-3.8769531-9.3720703c-0.1665039-0.5849609-0.3178711-1.1362305-0.4604492-1.6552734    c-0.8822632-3.2072144-1.4401245-5.1827393-3.0343628-6.1453247c2.0667114-1.6594849,3.3952026-4.2024536,3.3952026-7.0529175    c0-4.9882813-4.0585938-9.046875-9.046875-9.046875s-9.046875,4.0585938-9.046875,9.046875    c0,2.8062744,1.2844849,5.3182983,3.2963867,6.9790039H41.0161133c2.0119019-1.6607056,3.2963867-4.1727295,3.2963867-6.9790039    c0-4.9882813-4.0585938-9.046875-9.046875-9.046875s-9.046875,4.0585938-9.046875,9.046875    c0,2.8504639,1.3284912,5.3934326,3.3952026,7.0529175c-1.5942383,0.9625854-2.1520996,2.9381104-3.0343628,6.1453247    c-0.1425781,0.519043-0.2939453,1.0703125-0.4604492,1.6552734c-1.1479492,4.03125-2.3798828,7.0097656-3.8769531,9.3720703    c-1.3300781,2.0981445-4.6582031,3.1962891-7.2578125,3.1962891c-2.6020508,0-5.1801758-1.3076172-6.8969727-3.4980469    c-1.8149414-2.3154297-2.4907227-7.6958008-1.8540039-14.7607422c0.6582031-7.3041992,1.6723633-12.2583008,2.7460938-17.503418    c1.0810547-5.2817383,1.7587891-8.0615234,2.9194336-10.5703125c1.0581055-2.2885742,4.3154297-6.7836914,4.7666016-7.4018555    c0.5209961-0.137207,3.3789063-0.859375,5.6938477-0.859375c2.3920898,0,3.6010742,0.2861328,5.4306641,0.7192383    l0.3764648,0.0810547c1.4800415,0.7631226,2.7355957,1.2681885,6.2866211,1.2912598v12.3146973    c0,1.9365234,1.1777344,3.1875,3,3.1875h2.0463867c0.2504883,0,0.4946289,0.1035156,0.6689453,0.2832031l1.6635742,1.7192383    c0.2680664,0.2763672,0.6430664,0.4350586,1.027832,0.4350586h14.2802734c0.3847656,0,0.7597656-0.1586914,1.0283203-0.4355469    l1.6625977-1.7182617c0.1748047-0.1801758,0.4189453-0.2836914,0.6694336-0.2836914h2.0463867c1.8222656,0,3-1.2509766,3-3.1875    V25.5056152c3.5510254-0.0230713,4.8052368-0.5276489,6.2290039-1.2702637l0.434082-0.1020508    c1.8295898-0.4331055,3.0385742-0.7192383,5.4306641-0.7192383c2.3149414,0,5.1728516,0.722168,5.6938477,0.859375    c0.4511719,0.6181641,3.7080078,5.112793,4.7666016,7.4018555c1.1606445,2.5087891,1.8383789,5.2885742,2.9194336,10.5703125    c1.0737305,5.2451172,2.0878906,10.1992188,2.7460938,17.503418    C94.4033203,66.8139648,93.7275391,72.1943359,91.9125977,74.5097656z"/><path d="M70.5678711,29.4765625v-1.875c0-1.0336914-0.8413086-1.875-1.875-1.875s-1.875,0.8413086-1.875,1.875v1.875    c0,1.0336914,0.8413086,1.875,1.875,1.875S70.5678711,30.5102539,70.5678711,29.4765625z M67.3178711,29.4765625v-1.875    c0-0.7583008,0.6166992-1.375,1.375-1.375s1.375,0.6166992,1.375,1.375v1.875c0,0.7583008-0.6166992,1.375-1.375,1.375    S67.3178711,30.2348633,67.3178711,29.4765625z"/><circle cx="64.7553711" cy="49.8515625" r="6.25"/><path d="M71.8696289,34.2265625c-1.769043,0-3.2080078,1.4394531-3.2080078,3.2084961s1.4389648,3.2080078,3.2080078,3.2080078    s3.2084961-1.4389648,3.2084961-3.2080078S73.6386719,34.2265625,71.8696289,34.2265625z"/><path d="M78.6132813,40.9501953c-1.769043,0-3.2080078,1.4394531-3.2080078,3.2084961s1.4389648,3.2084961,3.2080078,3.2084961    s3.2084961-1.4394531,3.2084961-3.2084961S80.3823242,40.9501953,78.6132813,40.9501953z"/><path d="M85.3139648,34.25c-1.769043,0-3.2080078,1.4389648-3.2080078,3.2080078s1.4389648,3.2084961,3.2080078,3.2084961    s3.2084961-1.4394531,3.2084961-3.2084961S87.0830078,34.25,85.3139648,34.25z"/><path d="M78.5825195,33.9345703c1.769043,0,3.2080078-1.4389648,3.2080078-3.2080078s-1.4389648-3.2084961-3.2080078-3.2084961    s-3.2084961,1.4394531-3.2084961,3.2084961S76.8134766,33.9345703,78.5825195,33.9345703z"/></g></g><text x="0" y="115" fill="#000000" font-size="5px" font-weight="bold" font-family="'Helvetica Neue', Helvetica, Arial-Unicode, Arial, Sans-serif">Created by Alone forever</text><text x="0" y="120" fill="#000000" font-size="5px" font-weight="bold" font-family="'Helvetica Neue', Helvetica, Arial-Unicode, Arial, Sans-serif">from the Noun Project</text></svg>