<svg width="370" height="368" viewBox="0 0 370 368" fill="none" xmlns="http://www.w3.org/2000/svg">
<path d="M34.5479 236.986H331.119V206.678C331.119 124.832 264.598 58.2441 182.833 58.2441C101.069 58.2441 34.5479 124.832 34.5479 206.678V236.986Z" fill="#3F3D56"/>
<path opacity="0.72" d="M34.5479 236.986H331.119V206.678C331.119 124.832 264.598 58.2441 182.833 58.2441C101.069 58.2441 34.5479 124.832 34.5479 206.678V236.986Z" fill="#878787"/>
<path d="M72.9854 247.478H301.223C301.006 235.458 296.087 224.003 287.523 215.575C278.959 207.146 267.434 202.417 255.424 202.404H118.784C106.774 202.417 95.2489 207.146 86.685 215.575C78.1212 224.003 73.2022 235.458 72.9854 247.478V247.478Z" fill="#E8979C"/>
<path d="M45.8055 242.815C71.1032 242.815 91.611 222.287 91.611 196.964C91.611 171.641 71.1032 151.112 45.8055 151.112C20.5078 151.112 0 171.641 0 196.964C0 222.287 20.5078 242.815 45.8055 242.815Z" fill="#B6B5BC"/>
<path d="M323.744 242.815C349.042 242.815 369.549 222.287 369.549 196.964C369.549 171.641 349.042 151.112 323.744 151.112C298.446 151.112 277.938 171.641 277.938 196.964C277.938 222.287 298.446 242.815 323.744 242.815Z" fill="#B6B5BC"/>
<path d="M289.196 220.278V237.375H77.6365V220.278H30.2783V303.609C30.2783 308.715 32.3045 313.612 35.9112 317.222C39.5178 320.832 44.4095 322.86 49.5101 322.86H317.322C319.848 322.86 322.349 322.362 324.682 321.395C327.015 320.427 329.135 319.009 330.921 317.222C332.707 315.434 334.124 313.312 335.09 310.976C336.057 308.641 336.554 306.137 336.554 303.609V220.278H289.196Z" fill="#737279"/>
<path opacity="0.6" d="M323.744 206.289C328.889 206.289 333.06 202.114 333.06 196.964C333.06 191.813 328.889 187.638 323.744 187.638C318.599 187.638 314.428 191.813 314.428 196.964C314.428 202.114 318.599 206.289 323.744 206.289Z" fill="#737279"/>
<path opacity="0.6" d="M46.3164 206.289C51.4616 206.289 55.6327 202.114 55.6327 196.964C55.6327 191.813 51.4616 187.638 46.3164 187.638C41.1711 187.638 37 191.813 37 196.964C37 202.114 41.1711 206.289 46.3164 206.289Z" fill="#737279"/>
<path d="M203.833 52.4683C203.833 52.4683 200.962 69.6737 206.429 74.6399C211.896 79.6061 200.287 102.389 200.287 102.389L170.579 96.7517L175.131 67.7116C175.131 67.7116 181.284 56.8667 180.684 51.1C180.085 45.3333 203.833 52.4683 203.833 52.4683Z" fill="#FFB8B8"/>
<path d="M233.595 295.042L222.604 307.877L240.007 324.379L249.165 306.043L233.595 295.042Z" fill="#FFB8B8"/>
<path d="M155.745 295.042L166.736 307.877L149.334 324.379L140.175 306.043L155.745 295.042Z" fill="#FFB8B8"/>
<path d="M227.642 173.566C227.642 173.566 293.586 195.569 289.922 216.655C286.259 237.742 257.866 312.002 257.866 312.002C257.866 312.002 242.296 312.002 230.39 295.5L238.633 277.164C238.633 277.164 234.969 267.079 241.38 265.246C247.791 263.412 251.455 231.324 251.455 231.324C251.455 231.324 204.745 227.657 194.67 210.238L176.353 166.231L227.642 173.566Z" fill="#343434"/>
<path d="M161.698 173.566C161.698 173.566 95.7547 195.569 99.4182 216.655C103.082 237.742 131.474 312.002 131.474 312.002C131.474 312.002 147.044 312.002 158.951 295.5L150.708 277.164C150.708 277.164 154.371 267.079 147.96 265.246C141.549 263.412 137.885 231.324 137.885 231.324C137.885 231.324 184.595 227.657 194.67 210.238L212.988 166.231L161.698 173.566Z" fill="#343434"/>
<path d="M236.801 317.503C236.801 317.503 245.96 309.252 246.876 315.669C247.792 322.087 245.96 347.757 245.96 347.757C245.96 347.757 255.119 367.01 241.38 367.01C227.642 367.01 221.231 352.341 223.063 337.673C224.894 323.004 216.651 317.503 216.651 317.503C216.651 317.503 206.577 297.333 216.651 295.5C226.726 293.666 230.39 298.25 230.39 298.25C230.39 298.25 226.726 314.753 236.801 317.503Z" fill="#B6B5BC"/>
<path d="M152.54 317.503C152.54 317.503 143.381 309.252 142.465 315.669C141.549 322.087 143.381 347.757 143.381 347.757C143.381 347.757 134.222 367.01 147.96 367.01C161.698 367.01 168.11 352.341 166.278 337.673C164.446 323.004 172.689 317.503 172.689 317.503C172.689 317.503 182.764 297.333 172.689 295.5C162.614 293.666 158.951 298.25 158.951 298.25C158.951 298.25 162.614 314.753 152.54 317.503Z" fill="#B6B5BC"/>
<path d="M187.694 59.694C199.053 62.2085 210.302 55.0293 212.819 43.6589C215.336 32.2885 208.168 21.0325 196.809 18.518C185.45 16.0035 174.201 23.1826 171.684 34.5531C169.167 45.9235 176.335 57.1795 187.694 59.694Z" fill="#FFB8B8"/>
<path d="M188.717 78.6768L175.895 68.592L144.755 83.2608L143.839 166.69C143.839 166.69 124.605 175.858 130.101 187.776C130.101 187.776 146.587 191.443 153.914 198.778C161.241 206.112 202.456 196.027 219.857 190.526C237.259 185.026 241.839 178.608 241.839 178.608L232.5 144.5V63.5L203.375 69.6404L188.717 78.6768Z" fill="#DED9D9"/>
<path d="M220.358 30.6282C220.044 29.9203 219.776 29.1935 219.553 28.4519C219.26 26.7559 220.673 25.1467 220.053 23.4865C219.42 21.7918 217.05 20.9392 215.613 19.565C213.4 17.448 213.609 14.3016 211.592 12.0621C210.138 10.4486 207.751 9.57177 205.429 9.13147C203.107 8.69117 200.739 8.60485 198.421 8.13989C195.292 7.52003 192.341 6.20341 189.789 4.28751L190.754 7.99721C188.954 7.16583 187.309 6.03262 185.89 4.64651C184.931 5.41458 185.994 7.13823 184.946 7.82592C184.533 8.03127 184.077 8.13182 183.616 8.11869C180.126 8.32581 176.701 9.15119 173.499 10.5564C172.771 10.8214 172.119 11.2623 171.603 11.8399C170.941 12.7259 171.094 13.9 170.829 14.939C170.347 16.827 168.53 18.1641 167.121 19.6492C165.713 21.1344 164.666 23.2322 165.87 25.0239C166.176 25.4014 166.463 25.7944 166.728 26.2013C167.858 28.3454 164.565 30.3905 165.446 32.5954C165.828 33.5527 166.896 34.2307 167.797 34.9456C169.529 36.2781 170.835 38.0891 171.551 40.1553L172.043 34.2185C172.033 34.067 172.059 33.9153 172.118 33.7755C172.178 33.6357 172.269 33.5118 172.385 33.4136C172.85 33.1101 173.612 33.4408 174.193 33.3002C174.833 33.1454 175.02 32.5072 175.117 31.9595L175.866 27.7362C176.204 25.8371 176.237 25.5824 177.957 24.3701C179.159 23.5231 180.822 23.2197 182.455 23.0872C186.185 22.7844 190.024 23.2437 193.817 23.7018C198.221 24.2338 203.539 23.2145 206.395 26.1789C208.733 28.6056 208.982 31.7988 209.716 34.7443C210.375 37.3917 211.867 45.0874 215.244 41.8481C217.365 39.8138 221.291 33.6227 220.358 30.6282Z" fill="#737279"/>
<path d="M197.104 33.9153C197.019 33.8966 196.93 33.9123 196.857 33.959C196.784 34.0057 196.732 34.0795 196.713 34.1643L194.805 42.784C194.787 42.8688 194.802 42.9576 194.849 43.0308C194.896 43.104 194.97 43.1557 195.054 43.1745L209.878 46.4559C209.962 46.4746 210.051 46.4589 210.124 46.4122C210.198 46.3655 210.249 46.2917 210.268 46.2069L212.176 37.5872C212.195 37.5024 212.179 37.4136 212.133 37.3404C212.086 37.2672 212.012 37.2155 211.927 37.1967L197.104 33.9153Z" fill="#3F3D56"/>
<path d="M198.593 35.042C198.435 35.0072 198.269 35.0366 198.133 35.1236C197.997 35.2106 197.9 35.3483 197.865 35.5062L196.416 42.053C196.381 42.2111 196.41 42.3765 196.497 42.5129C196.584 42.6494 196.722 42.7458 196.879 42.7809L208.39 45.3289C208.548 45.3637 208.713 45.3343 208.849 45.2473C208.986 45.1602 209.082 45.0226 209.117 44.8646L210.567 38.3179C210.601 38.1598 210.572 37.9944 210.485 37.8579C210.398 37.7215 210.261 37.6251 210.103 37.59L198.593 35.042Z" fill="#FF5964"/>
<path d="M196.642 36.7913L188.921 35.082L188.525 36.8723L196.246 38.5816L196.642 36.7913Z" fill="#3F3D56"/>
<path d="M176.113 29.2685C176.028 29.2499 175.94 29.2656 175.866 29.3123C175.793 29.359 175.742 29.4328 175.723 29.5175L173.815 38.1372C173.796 38.222 173.812 38.3107 173.858 38.3839C173.905 38.4571 173.979 38.5088 174.063 38.5277L188.887 41.8092C188.972 41.8278 189.06 41.812 189.134 41.7653C189.207 41.7187 189.258 41.6449 189.277 41.5601L191.185 32.9404C191.204 32.8556 191.188 32.7669 191.142 32.6937C191.095 32.6205 191.021 32.5688 190.937 32.5499L176.113 29.2685Z" fill="#3F3D56"/>
<path d="M177.602 30.3953C177.444 30.3605 177.278 30.3898 177.142 30.4768C177.006 30.5639 176.909 30.7015 176.874 30.8595L175.425 37.4063C175.39 37.5644 175.419 37.7298 175.506 37.8663C175.593 38.0028 175.731 38.0992 175.888 38.1342L187.399 40.6822C187.557 40.717 187.722 40.6877 187.858 40.6007C187.995 40.5136 188.091 40.376 188.126 40.218L189.576 33.6712C189.61 33.5131 189.581 33.3476 189.494 33.2112C189.407 33.0747 189.27 32.9783 189.112 32.9432L177.602 30.3953Z" fill="#FF5964"/>
<path d="M159.329 146.544H211.917C214.016 146.544 216.03 147.379 217.514 148.865C218.999 150.351 219.833 152.367 219.833 154.468V154.468H151.413C151.413 152.367 152.247 150.351 153.731 148.865C155.216 147.379 157.229 146.544 159.329 146.544V146.544Z" fill="#3F3D56"/>
<path d="M215.592 145.978C215.284 145.979 214.979 146.031 214.688 146.132C214.588 145.73 214.345 145.379 214.004 145.144C213.663 144.909 213.248 144.808 212.837 144.859C212.427 144.909 212.049 145.109 211.775 145.419C211.501 145.73 211.35 146.13 211.351 146.544C211.351 146.552 211.353 146.56 211.353 146.569C211.141 146.589 210.932 146.632 210.73 146.698C210.672 146.47 210.568 146.255 210.424 146.069C210.279 145.883 210.098 145.729 209.891 145.616C210.434 145.316 210.864 144.845 211.115 144.276C211.433 144.307 211.754 144.272 212.057 144.171C212.36 144.07 212.638 143.906 212.874 143.69C213.11 143.474 213.297 143.211 213.425 142.918C213.552 142.624 213.616 142.308 213.613 141.988C213.61 141.668 213.539 141.353 213.406 141.062C213.273 140.771 213.08 140.512 212.839 140.301C212.599 140.09 212.318 139.932 212.012 139.837C211.707 139.743 211.386 139.714 211.068 139.752C210.761 139.753 210.455 139.805 210.164 139.906C210.112 139.683 210.015 139.473 209.88 139.289C209.744 139.105 209.573 138.95 209.376 138.834C209.179 138.718 208.961 138.643 208.735 138.614C208.508 138.585 208.278 138.602 208.058 138.664C207.838 138.726 207.633 138.832 207.456 138.976C207.278 139.12 207.131 139.298 207.024 139.5C206.917 139.702 206.852 139.924 206.833 140.151C206.814 140.379 206.841 140.609 206.913 140.826C206.846 140.873 206.783 140.926 206.719 140.978C206.4 140.703 205.984 140.564 205.563 140.593C205.346 139.968 204.915 139.439 204.348 139.1C203.78 138.76 203.111 138.632 202.458 138.736C201.805 138.841 201.21 139.172 200.777 139.672C200.343 140.172 200.099 140.809 200.088 141.471C199.861 141.489 199.637 141.533 199.42 141.604C199.396 141.508 199.363 141.415 199.323 141.324C199.546 141.127 199.725 140.885 199.849 140.615C199.973 140.344 200.039 140.05 200.042 139.752C200.002 139.114 199.713 138.519 199.236 138.095C198.759 137.671 198.134 137.452 197.497 137.488C197.19 137.489 196.884 137.541 196.593 137.642C196.541 137.419 196.444 137.209 196.309 137.025C196.173 136.841 196.002 136.686 195.805 136.57C195.608 136.454 195.39 136.379 195.164 136.35C194.937 136.321 194.707 136.338 194.487 136.4C194.267 136.462 194.062 136.568 193.885 136.712C193.707 136.856 193.56 137.034 193.453 137.236C193.346 137.438 193.281 137.659 193.262 137.887C193.243 138.115 193.27 138.344 193.342 138.561C192.986 138.809 192.692 139.135 192.482 139.515C192.273 139.895 192.154 140.318 192.134 140.752C192.11 140.773 192.082 140.79 192.06 140.813C192.102 140.651 192.124 140.485 192.126 140.318C192.086 139.68 191.796 139.085 191.319 138.661C190.843 138.237 190.218 138.018 189.581 138.054C189.273 138.055 188.968 138.107 188.677 138.208C188.624 137.985 188.528 137.775 188.392 137.591C188.257 137.407 188.086 137.252 187.889 137.136C187.692 137.02 187.474 136.945 187.247 136.916C187.021 136.887 186.791 136.904 186.571 136.966C186.351 137.028 186.146 137.134 185.968 137.278C185.791 137.422 185.644 137.6 185.537 137.802C185.43 138.004 185.365 138.225 185.346 138.453C185.327 138.681 185.354 138.911 185.426 139.128C185.05 139.387 184.744 139.734 184.532 140.139C184.32 140.543 184.209 140.993 184.209 141.45C184.209 141.906 184.32 142.356 184.532 142.761C184.744 143.165 185.05 143.512 185.426 143.772C185.311 144.101 185.311 144.459 185.426 144.788C185.142 144.986 184.897 145.233 184.702 145.519C184.598 145.139 184.363 144.807 184.04 144.582C183.717 144.357 183.325 144.252 182.932 144.286C182.54 144.32 182.171 144.491 181.891 144.768C181.611 145.045 181.437 145.412 181.399 145.805C181.173 145.672 180.928 145.573 180.672 145.511C181.13 145.208 181.491 144.779 181.711 144.276C182.029 144.307 182.35 144.272 182.653 144.171C182.956 144.07 183.235 143.906 183.47 143.69C183.706 143.474 183.894 143.211 184.021 142.918C184.148 142.624 184.212 142.308 184.209 141.988C184.206 141.668 184.135 141.353 184.002 141.062C183.869 140.771 183.676 140.512 183.436 140.301C183.195 140.09 182.914 139.932 182.609 139.837C182.303 139.743 181.982 139.714 181.664 139.752C181.357 139.753 181.051 139.805 180.76 139.906C180.708 139.683 180.611 139.473 180.476 139.289C180.34 139.105 180.169 138.95 179.972 138.834C179.776 138.718 179.557 138.643 179.331 138.614C179.104 138.585 178.874 138.602 178.654 138.664C178.435 138.726 178.23 138.832 178.052 138.976C177.874 139.12 177.727 139.298 177.62 139.5C177.513 139.702 177.448 139.924 177.429 140.151C177.41 140.379 177.438 140.609 177.509 140.826C177.473 140.851 177.44 140.881 177.405 140.907C177.317 140.899 177.231 140.884 177.141 140.884C176.833 140.885 176.527 140.937 176.237 141.038C176.226 140.995 176.208 140.955 176.194 140.914C176.249 140.662 176.245 140.401 176.182 140.151C176.119 139.901 175.998 139.669 175.831 139.473C175.663 139.278 175.452 139.123 175.215 139.023C174.977 138.923 174.72 138.879 174.463 138.895C174.316 138.484 174.076 138.114 173.761 137.811C173.447 137.509 173.067 137.284 172.652 137.153C172.236 137.022 171.796 136.99 171.366 137.057C170.935 137.125 170.526 137.292 170.171 137.544C169.815 137.796 169.523 138.127 169.317 138.511C169.11 138.895 168.996 139.322 168.981 139.758C168.967 140.194 169.054 140.627 169.235 141.024C169.415 141.421 169.685 141.77 170.024 142.045C169.829 142.067 169.637 142.109 169.451 142.17C169.384 141.894 169.249 141.639 169.057 141.43C168.865 141.221 168.624 141.063 168.355 140.972C168.086 140.881 167.799 140.86 167.52 140.91C167.241 140.96 166.979 141.081 166.758 141.259C166.506 140.96 166.191 140.72 165.835 140.557C165.479 140.394 165.092 140.312 164.701 140.318C164.393 140.319 164.087 140.371 163.796 140.472C163.744 140.249 163.647 140.04 163.512 139.855C163.377 139.671 163.205 139.517 163.009 139.4C162.812 139.284 162.593 139.21 162.367 139.18C162.14 139.151 161.91 139.168 161.691 139.23C161.471 139.292 161.266 139.398 161.088 139.542C160.91 139.686 160.764 139.864 160.657 140.066C160.55 140.268 160.485 140.49 160.466 140.717C160.446 140.945 160.474 141.175 160.546 141.392C160.17 141.651 159.864 141.998 159.652 142.403C159.44 142.807 159.329 143.257 159.329 143.714C159.329 143.723 159.331 143.731 159.331 143.739C158.93 143.679 158.521 143.723 158.142 143.868C158.09 143.645 157.993 143.436 157.857 143.252C157.722 143.067 157.551 142.913 157.354 142.797C157.157 142.681 156.939 142.606 156.712 142.576C156.486 142.547 156.256 142.564 156.036 142.626C155.816 142.688 155.611 142.795 155.433 142.938C155.256 143.082 155.109 143.26 155.002 143.462C154.895 143.664 154.83 143.886 154.811 144.114C154.792 144.341 154.819 144.571 154.891 144.788C154.346 145.157 153.947 145.707 153.764 146.34C153.582 146.973 153.626 147.651 153.891 148.254C154.156 148.858 154.623 149.35 155.213 149.644C155.802 149.938 156.475 150.016 157.116 149.865C157.218 150.455 157.506 150.998 157.937 151.414C158.368 151.83 158.92 152.098 159.513 152.179C160.106 152.259 160.71 152.149 161.236 151.863C161.762 151.577 162.184 151.131 162.44 150.589C164.476 150.854 166.543 150.761 168.548 150.313C168.735 150.849 169.079 151.317 169.536 151.654C169.992 151.991 170.54 152.182 171.107 152.202C171.674 152.223 172.234 152.071 172.713 151.768C173.193 151.465 173.569 151.023 173.794 150.502C174.207 150.494 174.612 150.393 174.98 150.208C175.238 150.665 175.619 151.04 176.078 151.292C176.538 151.544 177.058 151.662 177.582 151.634C178.105 151.606 178.61 151.432 179.04 151.132C179.469 150.832 179.807 150.418 180.014 149.936C180.643 149.817 181.294 149.922 181.854 150.232C182.413 150.543 182.847 151.041 183.078 151.638C183.456 151.12 183.943 150.691 184.504 150.38C185.065 150.069 185.687 149.884 186.326 149.839C186.894 149.997 187.498 149.969 188.05 149.759C188.601 149.548 189.07 149.166 189.388 148.669C189.21 149.358 189.298 150.089 189.635 150.716C189.972 151.343 190.533 151.819 191.205 152.051C191.878 152.282 192.613 152.251 193.264 151.964C193.914 151.677 194.433 151.155 194.716 150.502C195.129 150.494 195.534 150.393 195.902 150.208C196.16 150.665 196.541 151.04 197 151.292C197.46 151.544 197.98 151.662 198.504 151.634C199.027 151.606 199.532 151.432 199.962 151.132C200.391 150.832 200.729 150.418 200.936 149.936C201.349 149.928 201.754 149.827 202.122 149.642C202.321 149.997 202.595 150.304 202.924 150.542C203.254 150.78 203.631 150.944 204.03 151.021C204.429 151.098 204.84 151.088 205.234 150.99C205.629 150.893 205.997 150.71 206.314 150.455C206.412 150.997 206.666 151.498 207.046 151.896C207.425 152.294 207.912 152.573 208.448 152.697C208.983 152.822 209.544 152.786 210.059 152.596C210.575 152.405 211.024 152.067 211.35 151.624C211.689 151.885 212.083 152.064 212.503 152.149C212.922 152.233 213.355 152.221 213.768 152.113C214.182 152.005 214.565 151.803 214.889 151.524C215.214 151.245 215.47 150.895 215.638 150.502C215.956 150.534 216.277 150.498 216.58 150.397C216.884 150.296 217.162 150.132 217.398 149.916C217.633 149.701 217.821 149.437 217.948 149.144C218.076 148.851 218.14 148.534 218.136 148.214C218.133 147.894 218.063 147.579 217.929 147.288C217.796 146.998 217.603 146.738 217.363 146.527C217.123 146.316 216.841 146.158 216.536 146.064C216.231 145.969 215.909 145.94 215.592 145.978L215.592 145.978ZM165.052 144.81C165.049 144.823 165.047 144.837 165.045 144.851C165.024 144.85 165.004 144.846 164.983 144.846C164.899 144.848 164.815 144.856 164.732 144.871C164.736 144.861 164.743 144.852 164.747 144.842C164.849 144.837 164.951 144.826 165.052 144.81V144.81ZM188.677 143.868C188.668 143.835 188.654 143.805 188.644 143.773C189.076 143.473 189.416 143.059 189.627 142.578C189.999 142.576 190.366 142.495 190.705 142.342C191.044 142.188 191.346 141.965 191.593 141.687C191.572 141.795 191.56 141.905 191.56 142.016C191.562 142.188 191.591 142.36 191.646 142.524C191.16 142.863 190.793 143.345 190.595 143.903C189.98 143.663 189.3 143.651 188.677 143.868V143.868ZM205.612 144.079C205.611 144.044 205.616 144.009 205.613 143.974C205.685 143.974 205.757 143.969 205.829 143.959C205.938 144.326 206.122 144.666 206.367 144.958C206.314 144.973 206.258 144.982 206.206 145C206.115 144.636 205.906 144.312 205.612 144.079V144.079Z" fill="#F9A825"/>
<path d="M157.109 149.374C156.306 149.374 155.513 149.537 154.776 149.855C154.039 150.172 153.375 150.636 152.823 151.219C152.271 151.801 151.844 152.491 151.567 153.244C151.29 153.998 151.17 154.8 151.213 155.601L155.042 208.307C155.122 209.817 155.779 211.24 156.876 212.28C157.972 213.321 159.426 213.901 160.938 213.901H210.308C211.819 213.901 213.273 213.321 214.37 212.28C215.467 211.24 216.123 209.817 216.204 208.307L220.033 155.601C220.076 154.8 219.955 153.998 219.679 153.244C219.402 152.491 218.974 151.801 218.423 151.219C217.871 150.636 217.206 150.172 216.47 149.855C215.733 149.537 214.939 149.374 214.137 149.374H157.109Z" fill="#3F3D56"/>
<path d="M163.287 149.374H159.895V213.901H163.287V149.374Z" fill="#3C8780"/>
<path d="M172.9 149.374H169.507V213.901H172.9V149.374Z" fill="#3C8780"/>
<path d="M182.513 149.374H179.12V213.901H182.513V149.374Z" fill="#3C8780"/>
<path d="M192.126 149.374H188.733V213.901H192.126V149.374Z" fill="#3C8780"/>
<path d="M201.738 149.374H198.346V213.901H201.738V149.374Z" fill="#3C8780"/>
<path d="M211.351 149.374H207.958V213.901H211.351V149.374Z" fill="#3C8780"/>
<path d="M297.107 110.681L300.232 123.019C300.232 123.019 314.024 154.632 322.618 138.044C331.212 121.457 313.978 111.728 313.978 111.728L308.705 103.537L297.107 110.681Z" fill="#FFB8B8"/>
<path d="M155.745 176.774L166.736 183.192C166.736 183.192 193.296 205.195 174.979 208.862C156.661 212.53 152.082 193.277 152.082 193.277L145.67 185.942L155.745 176.774Z" fill="#FFB8B8"/>
<path d="M216.051 85.2334L220.018 73.9699C220.018 73.9699 226.816 61.2679 237.205 65C237.205 65 265.906 69.1981 275.173 73.5776C275.173 73.5776 291.588 76.0794 297.075 80.3944C302.563 84.7095 312.328 102.5 312.328 102.5C312.328 102.5 297.724 120.122 297.075 119L275.173 95.0001L220.018 106.5L216.051 85.2334Z" fill="#DED9D9"/>
<path d="M144.754 83.2607L144.297 83.7192C144.297 83.7192 123.689 92.4287 124.605 103.43C124.605 103.43 116.362 127.267 118.194 137.352C118.194 137.352 116.362 153.854 119.11 160.272C121.857 166.69 144.754 191.443 144.754 191.443C144.754 191.443 165.82 174.941 164.904 174.024L137.427 146.52L151.166 128.184L144.754 83.2607Z" fill="#DED9D9"/>
</svg>
